<?xml version="1.0" encoding="UTF-8" standalone="no"?>
<svg width="20px" height="19px" viewBox="0 0 20 19" version="1.1" xmlns="http://www.w3.org/2000/svg" xmlns:xlink="http://www.w3.org/1999/xlink">
    <!-- Generator: Sketch 3.6.1 (26313) - http://www.bohemiancoding.com/sketch -->
    <title>Combined Shape</title>
    <desc>Created with Sketch.</desc>
    <defs></defs>
    <g id="Page-1" stroke="none" stroke-width="1" fill="none" fill-rule="evenodd">
        <g id="Список-ивентов" transform="translate(-1145.000000, -192.000000)" stroke="#ADB0B6">
            <g id="1" transform="translate(428.000000, 183.000000)">
                <path d="M721,13 L719.999422,13 C718.344351,13 717,14.3428872 717,15.9994225 L717,25.0005775 C717,26.6556493 718.342887,28 719.999422,28 L729.000578,28 C730.655649,28 732,26.6571128 732,25.0005775 L732,23 L731,23 L731,24.9972399 C731,26.1033337 730.106457,27 728.99724,27 L720.00276,27 C718.896666,27 718,26.1064574 718,24.9972399 L718,16.0027601 C718,14.8966663 718.893543,14 720.00276,14 L721,14 L721,13 Z M729.170338,9.20594969 L735.978142,15.0379973 C735.978142,15.0379973 736.562256,15.4121093 736.627197,15.982727 C736.692138,16.5533446 735.978142,16.9140732 735.978142,16.9140732 L729.107793,21.9006659 L729.153604,18.8655871 L725.091196,18.8683303 C725.091196,18.8683303 724.666,19.204647 723.31223,20.4259204 C721.958459,21.6471938 720.894097,23.0522621 720.894097,23.0522621 L720.948138,16.8194327 C720.948138,16.8194327 720.76983,15.5471353 722.180384,14.3445157 C723.590939,13.1418962 724.986132,13.0217438 724.986132,13.0217438 L729.148666,13.0162574 L729.170338,9.20594969 Z" id="Combined-Shape"></path>
            </g>
        </g>
    </g>
</svg>