<?xml version="1.0" encoding="UTF-8" standalone="no"?>
<svg width="25px" height="26px" viewBox="0 0 25 26" version="1.1" xmlns="http://www.w3.org/2000/svg" xmlns:xlink="http://www.w3.org/1999/xlink">
    <!-- Generator: Sketch 3.6.1 (26313) - http://www.bohemiancoding.com/sketch -->
    <title>Combined Shape</title>
    <desc>Created with Sketch.</desc>
    <defs></defs>
    <g id="Page-1" stroke="none" stroke-width="1" fill="none" fill-rule="evenodd">
        <g id="Список-ивентов" transform="translate(-151.000000, -16.000000)" stroke-width="1.5" stroke="#D2D6DF">
            <g id="header">
                <path d="M165.22948,32.5637845 C163.877394,33.4708522 162.250492,34 160.5,34 C155.80558,34 152,30.1944204 152,25.5 C152,20.8055796 155.80558,17 160.5,17 C165.19442,17 169,20.8055796 169,25.5 C169,27.6561102 168.197216,29.6247201 166.874243,31.1232347 C167.710855,30.8938386 168.642705,31.1071715 169.300522,31.7649882 L173.54872,36.0131864 C174.523496,36.9879625 174.529059,38.5628242 173.545942,39.5459415 C172.569631,40.5222523 170.989557,40.5250911 170.013186,39.5487203 L165.764988,35.3005221 C165.024808,34.5603416 164.843464,33.474159 165.22948,32.5637845 Z" id="Combined-Shape"></path>
            </g>
        </g>
    </g>
</svg>